# xmcd CD database file
#
# Track frame offsets:
#	150
#	32934
#	63054
#	90102
#	108616
#	137347
#	152127
#	176322
#	215103
#	240743
#	252684
#	284701
#	306404
#	319321
#
# Disc length: 4501 seconds
#
# Revision: 0
# Processed by: cddbd v1.5.2PL0 Copyright (c) Steve Scherf et al.
# Submitted via: CDex 1.75
#
DISCID=cd11930e
DTITLE=Peter Clark - The 20 Man Music  Machine
DYEAR=2019
DGENRE=Jazz
TTITLE0=All The Things You Are-n't
TTITLE1=SwanSong
TTITLE2=Revenge Of The Rhythm Section
TTITLE3=When Johnny Comes Marching Home
TTITLE4=2 More Than 4
TTITLE5=Good News
TTITLE6=Kenton Gets A Mention
TTITLE7=Love For Sale
TTITLE8=Autumn Leaves
TTITLE9=Pete's Neat Tune
TTITLE10=No Chord Left Behind
TTITLE11=Caravan
TTITLE12=Teach Me Tonight
TTITLE13=Igor Butman Sax Machine
EXTD=YEAR: 2019
EXTT0=
EXTT1=
EXTT2=
EXTT3=
EXTT4=
EXTT5=
EXTT6=
EXTT7=
EXTT8=
EXTT9=
EXTT10=
EXTT11=
EXTT12=
EXTT13=
PLAYORDER=
